<svg xmlns="http://www.w3.org/2000/svg" viewBox="0 0 678 358" width="678" height="358">
	<defs>
		<clipPath clipPathUnits="userSpaceOnUse" id="cp1">
			<path d="M-281 -698L959 -698L959 1056L-281 1056Z" />
		</clipPath>
	</defs>
	<style>
		tspan { white-space:pre }
		.shp0 { fill: #fff; fill-opacity: 0.4 }
		.shp1 { fill: #fff; fill-opacity: 0.7 }
		.shp2 { fill: #fff }
	</style>
	<g id="Page 1" clip-path="url(#cp1)">
		<path id="Path 1" class="shp0" d="M258.56 0.7L406.02 0.7L350.48 77.59L206.01 77.59L258.56 0.7Z" />
		<path id="Path 2" class="shp1" d="M198.73 129.96L224.86 89.93L358.72 89.93L405.42 22L460.52 22L388.77 129.96L198.73 129.96Z" />
		<path id="Path 3" fill-rule="evenodd" class="shp2" d="M215.67 142.25L397.1 142.25L459.66 44.4L510.6 44.4L424.92 180.63L189.26 180.63L215.67 142.25ZM1.33 331.41L1.33 284.53C1.33 280.08 1.21 275.52 0.73 271.07L16.35 271.07L16.6 281.16C20.32 273.59 26.93 269.87 35.59 269.87C44.72 269.87 51.21 274.67 53.5 281.77C56.38 274.44 64.55 269.87 72.12 269.87C86.55 269.87 91.72 279.24 91.72 292.34L91.72 331.41L75.13 331.41L75.13 293.79C75.13 287.42 73.21 281.77 65.87 281.77C57.46 281.77 54.7 290.3 54.7 297.99L54.7 331.41L38.23 331.41L38.23 293.79C38.23 287.42 36.55 281.77 29.1 281.77C20.68 281.77 17.92 290.3 17.92 297.99L17.92 331.41L1.33 331.41ZM124.29 304.84C124.65 315.3 131.26 321.67 144.12 321.67C150.01 321.67 156.5 320.11 160.71 317.71L161.43 329.24C156.62 331.29 148.81 332.73 142.2 332.73C119.96 332.73 108.06 321.07 108.06 301C108.06 283.09 120.2 269.87 137.99 269.87C157.35 269.87 164.56 282.61 164.56 300.88L164.56 304.84L124.29 304.84ZM149.65 295.47C149.65 287.9 147.25 279.84 138.11 279.84C128.98 279.84 124.65 287.78 124.29 295.47L149.65 295.47ZM216.24 330.45C211.91 331.89 207.1 332.73 202.42 332.73C188.6 332.73 185.35 323.96 185.35 311.34L185.35 282.01L174.53 282.01L174.53 271.07L185.35 271.07L185.35 258.81L201.94 253.4L201.94 271.07L215.4 271.07L215.4 282.01L201.94 282.01L201.94 311.57C201.94 316.74 203.26 320.71 209.15 320.71C211.43 320.71 213.6 320.23 215.76 319.39L216.24 330.45ZM267.32 331.41L266.96 322.51C262.76 329.12 256.39 332.73 247.25 332.73C236.19 332.73 226.82 326.24 226.82 314.22C226.82 298.23 242.2 293.91 259.15 293.91C261.43 293.91 264.08 294.03 266.36 294.15L266.36 292.1C266.36 283.57 261.19 280.32 252.06 280.32C246.65 280.32 240.04 281.89 234.39 284.89L233.67 273.83C239.92 271.31 247.73 269.87 254.46 269.87C270.69 269.87 282.35 275.64 282.35 293.31L282.35 317.22C282.35 323.35 282.47 327.2 282.95 331.41L267.32 331.41ZM263 302.68C253.26 302.68 242.68 304.48 242.68 313.5C242.68 319.39 246.41 322.39 251.58 322.39C261.68 322.39 266.36 314.1 266.36 305.2L266.36 302.68L263 302.68ZM301.7 357.37L301.7 288.62C301.7 281.41 301.46 276.24 301.1 271.07L316.84 271.07L317.2 281.29C320.57 273.95 328.5 269.87 336.56 269.87C354.82 269.87 361.56 284.89 361.56 301C361.56 317.22 354.7 332.73 336.19 332.73C328.5 332.73 321.29 328.88 318.29 321.67L318.29 357.37L301.7 357.37ZM330.79 321.07C341.72 321.07 343.77 309.65 343.77 301C343.77 292.34 341.84 281.53 330.91 281.53C320.45 281.53 317.8 292.7 317.8 301C317.8 305.2 318.53 310.25 320.45 314.22C322.37 318.07 325.62 321.07 330.79 321.07ZM378.02 331.41L378.02 244.75L394.61 244.75L394.61 281.05C398.34 273.47 404.82 269.87 413.12 269.87C427.3 269.87 433.31 278.4 433.31 292.22L433.31 331.41L416.72 331.41L416.72 296.07C416.72 288.86 415.64 281.77 406.63 281.77C397.49 281.77 394.61 290.18 394.61 297.99L394.61 331.41L378.02 331.41ZM489.44 331.41L489.08 322.51C484.87 329.12 478.5 332.73 469.37 332.73C458.31 332.73 448.94 326.24 448.94 314.22C448.94 298.23 464.32 293.91 481.27 293.91C483.55 293.91 486.2 294.03 488.48 294.15L488.48 292.1C488.48 283.57 483.31 280.32 474.18 280.32C468.77 280.32 462.16 281.89 456.51 284.89L455.79 273.83C462.04 271.31 469.85 269.87 476.58 269.87C492.81 269.87 504.47 275.64 504.47 293.31L504.47 317.22C504.47 323.35 504.59 327.2 505.07 331.41L489.44 331.41ZM485.12 302.68C475.38 302.68 464.8 304.48 464.8 313.5C464.8 319.39 468.53 322.39 473.7 322.39C483.79 322.39 488.48 314.1 488.48 305.2L488.48 302.68L485.12 302.68ZM570.09 330.45C564.69 332.25 559.64 332.73 553.51 332.73C533.79 332.73 520.33 320.71 520.33 301C520.33 281.41 534.87 269.87 553.99 269.87C560.12 269.87 564.69 270.47 569.97 272.03L569.25 283.81C565.52 282.01 561.56 281.16 557.35 281.16C545.09 281.16 538.12 289.46 538.12 301C538.12 312.18 544.73 321.07 557.23 321.07C561.44 321.07 565.29 320.47 569.49 318.67L570.09 330.45ZM621.42 330.45C617.09 331.89 612.28 332.73 607.59 332.73C593.77 332.73 590.53 323.96 590.53 311.34L590.53 282.01L579.71 282.01L579.71 271.07L590.53 271.07L590.53 258.81L607.11 253.4L607.11 271.07L620.57 271.07L620.57 282.01L607.11 282.01L607.11 311.57C607.11 316.74 608.44 320.71 614.33 320.71C616.61 320.71 618.77 320.23 620.94 319.39L621.42 330.45ZM634.64 317.22C639.93 319.99 645.58 321.31 651.22 321.31C657.6 321.31 661.68 319.51 661.68 314.34C661.68 304 633.56 307.73 633.56 288.14C633.56 274.55 647.38 269.75 658.44 269.75C664.33 269.75 670.34 270.71 675.02 272.03L674.3 284.05C669.5 282.13 664.57 281.16 659.4 281.16C655.19 281.16 649.54 282.13 649.54 287.3C649.54 296.79 677.43 292.22 677.43 313.14C677.43 327.68 664.33 332.73 652.19 332.73C645.34 332.73 639.69 331.89 633.92 329.85L634.64 317.22Z" />
	</g>
</svg>
