<svg height='100px' width='100px'  fill="#000000" xmlns="http://www.w3.org/2000/svg" viewBox="0 0 48 48" x="0px" y="0px"><title>Layer</title><g><path d="M48,24c0-.85,0-.66-7-4,6.48-3.1,7-3.1,7-4s1.38,0-23.57-11.9c-.65-.31.83-.81-23.86,11a1,1,0,0,0,0,1.8L7,20,.57,23.1a1,1,0,0,0,0,1.8L7,28,.57,31.1a1,1,0,0,0,0,1.8C25.13,44.65,23.65,44,24,44s-1.2.68,23.43-11.1a1,1,0,0,0,0-1.8L41,28C47.44,24.9,48,24.9,48,24ZM24,6.11,44.68,16,24,25.89,3.32,16ZM44.68,32,24,41.89,3.32,32l6-2.89c15.39,7.36,14.45,7.09,15.07,6.79l14.21-6.79ZM24,33.89,3.32,24l6-2.89C24.81,28.49,23.66,28,24,28s-.75.47,14.64-6.89l6,2.89Z"></path></g></svg>