<svg height='100px' width='100px'  fill="#000000" xmlns="http://www.w3.org/2000/svg" xmlns:xlink="http://www.w3.org/1999/xlink" version="1.1" x="0px" y="0px" viewBox="0 0 64 64" style="enable-background:new 0 0 64 64;" xml:space="preserve"><g><path d="M33.5,31.4v6.3h25v-6.3H33.5z M37.7,35.5h-1.1c-0.5,0-1-0.5-1-1s0.5-1,1-1h1.1c0.5,0,1,0.5,1,1S38.3,35.5,37.7,35.5z    M41.8,35.5h-1c-0.5,0-1-0.5-1-1s0.5-1,1-1h1c0.5,0,1,0.5,1,1S42.3,35.5,41.8,35.5z M46,35.5h-1.1c-0.6,0-1-0.5-1-1s0.4-1,1-1H46   c0.5,0,1,0.5,1,1S46.5,35.5,46,35.5z"></path><path d="M33.5,43.8v6.3h25v-6.3H33.5z M37.7,48h-1.1c-0.5,0-1-0.5-1-1s0.5-1,1-1h1.1c0.5,0,1,0.5,1,1S38.3,48,37.7,48z M41.8,48h-1   c-0.5,0-1-0.5-1-1s0.5-1,1-1h1c0.5,0,1,0.5,1,1S42.3,48,41.8,48z M46,48h-1.1c-0.6,0-1-0.5-1-1s0.4-1,1-1H46c0.5,0,1,0.5,1,1   S46.5,48,46,48z"></path><path d="M33.5,18.9v6.3h25v-6.3H33.5z M37.7,23.1h-1.1c-0.5,0-1-0.4-1-1c0-0.5,0.5-1,1-1h1.1c0.5,0,1,0.5,1,1   C38.7,22.7,38.3,23.1,37.7,23.1z M41.8,23.1h-1c-0.5,0-1-0.4-1-1c0-0.5,0.5-1,1-1h1c0.5,0,1,0.5,1,1C42.8,22.7,42.3,23.1,41.8,23.1   z M46,23.1h-1.1c-0.6,0-1-0.4-1-1c0-0.5,0.4-1,1-1H46c0.5,0,1,0.5,1,1C47,22.7,46.5,23.1,46,23.1z"></path><path d="M19.7,15.8l-4.1-4.2c1.3-2,1.1-4.8-0.6-6.6c-2-2-5.3-2-7.4,0c-2,2-2,5.3,0,7.3c1,1,2.3,1.5,3.7,1.5c1,0,2-0.3,2.9-0.9   l4.1,4.2c0.2,0.2,0.5,0.3,0.7,0.3c0.3,0,0.5-0.1,0.7-0.3C20.1,16.8,20.1,16.2,19.7,15.8z M13.5,11c-1.2,1.2-3.3,1.3-4.5,0   C7.8,9.7,7.8,7.7,9,6.4c0.6-0.6,1.4-0.9,2.3-0.9s1.6,0.3,2.3,0.9C14.8,7.7,14.8,9.7,13.5,11z"></path><path d="M21,7.5c0,0.5-0.5,1-1,1h-1c-0.5,0-1-0.5-1-1s0.5-1,1-1h1C20.5,6.5,21,7,21,7.5z"></path><path d="M29.3,7.5c0,0.5-0.5,1-1,1h-1c-0.5,0-1-0.5-1-1s0.5-1,1-1h1C28.8,6.5,29.3,7,29.3,7.5z"></path><path d="M25.2,7.5c0,0.5-0.5,1-1,1h-1.1c-0.5,0-1-0.5-1-1s0.5-1,1-1h1.1C24.8,6.5,25.2,7,25.2,7.5z"></path><path d="M33.5,7.5c0,0.5-0.5,1-1,1h-1.1c-0.6,0-1-0.5-1-1s0.4-1,1-1h1.1C33,6.5,33.5,7,33.5,7.5z"></path><path d="M36.6,7.5v1.1c0,0.6-0.4,1-1,1c-0.5,0-1-0.4-1-1V7.5c0-0.5,0.5-1,1-1C36.2,6.5,36.6,7,36.6,7.5z"></path><path d="M36.6,11.7v1c0,0.5-0.4,1-1,1c-0.5,0-1-0.5-1-1v-1c0-0.5,0.5-1,1-1C36.2,10.7,36.6,11.2,36.6,11.7z"></path><g><circle cx="45.9" cy="58.4" r="2.1"></circle><g><path d="M45.8,58.4c0,0.5-0.5,1-1,1H37c-0.5,0-1-0.5-1-1c0-0.6,0.5-1,1-1h7.8C45.4,57.4,45.8,57.9,45.8,58.4z"></path><path d="M55.8,58.4c0,0.5-0.5,1-1,1H47c-0.5,0-1-0.5-1-1c0-0.6,0.5-1,1-1h7.8C55.4,57.4,55.8,57.9,55.8,58.4z"></path></g><path d="M46.9,54.2v3.1c0,0.5-0.5,1-1,1s-1-0.5-1-1v-3.1c0-0.5,0.5-1,1-1S46.9,53.7,46.9,54.2z"></path></g><path d="M28.3,36.6c0,0.6-0.5,1-1,1h-1c-0.5,0-1-0.4-1-1c0-0.5,0.5-1,1-1h1C27.8,35.6,28.3,36.1,28.3,36.6z"></path><path d="M24.1,36.6c0,0.6-0.4,1-1,1h-1c-0.5,0-1-0.4-1-1c0-0.5,0.5-1,1-1h1C23.7,35.6,24.1,36.1,24.1,36.6z"></path><path d="M20,36.6c0,0.6-0.5,1-1,1h-1.1c-0.6,0-1-0.4-1-1c0-0.5,0.4-1,1-1H19C19.5,35.6,20,36.1,20,36.6z"></path><path d="M15.8,36.6c0,0.6-0.5,1-1,1h-1c-0.5,0-1-0.4-1-1c0-0.5,0.5-1,1-1h1C15.3,35.6,15.8,36.1,15.8,36.6z"></path><path d="M11.7,36.6c0,0.6-0.5,1-1,1H9.6c-0.5,0-1-0.4-1-1c0-0.5,0.5-1,1-1h1.1C11.3,35.6,11.7,36.1,11.7,36.6z"></path><path d="M7.5,35.6v1c0,0.6-0.5,1-1,1s-1-0.4-1-1v-1c0-0.5,0.5-1,1-1S7.5,35.1,7.5,35.6z"></path><path d="M7.5,31.4v1.1c0,0.5-0.5,1-1,1s-1-0.5-1-1v-1.1c0-0.6,0.5-1,1-1S7.5,30.9,7.5,31.4z"></path><path d="M7.5,27.3v1c0,0.5-0.5,1-1,1s-1-0.5-1-1v-1c0-0.5,0.5-1,1-1S7.5,26.8,7.5,27.3z"></path><path d="M7.5,23.1v1.1c0,0.5-0.5,1-1,1s-1-0.5-1-1v-1.1c0-0.5,0.5-1,1-1S7.5,22.6,7.5,23.1z"></path><path d="M7.5,19v1c0,0.5-0.5,1-1,1s-1-0.5-1-1v-1c0-0.5,0.5-1,1-1S7.5,18.5,7.5,19z"></path><path d="M7.5,14.8v1c0,0.5-0.5,1-1,1s-1-0.5-1-1v-1c0-0.5,0.5-1,1-1S7.5,14.3,7.5,14.8z"></path></g></svg>