<svg height='100px' width='100px'  fill="#000000" xmlns="http://www.w3.org/2000/svg" xmlns:xlink="http://www.w3.org/1999/xlink" version="1.1" x="0px" y="0px" viewBox="0 0 100 100" enable-background="new 0 0 100 100" xml:space="preserve"><g><polygon points="33.893,26.704 49.639,29.685 65.958,26.629 63.945,15.214 63.846,15.214 56.829,9.906 49.835,15.197 42.84,9.906    35.825,15.214 35.919,15.214  "></polygon><path d="M49.79,74.548c0.892,0,1.747-0.217,2.539-0.646c2.597-1.405,3.567-4.66,2.163-7.258c-0.937-1.733-2.745-2.81-4.718-2.81   c-0.892,0-1.747,0.218-2.54,0.646c-1.258,0.681-2.175,1.81-2.584,3.181c-0.409,1.371-0.259,2.818,0.421,4.076   C46.008,73.471,47.816,74.548,49.79,74.548z"></path><path d="M75.824,62.26h-6.685l2.999-11.171H61.343c3.222-3.063,5.24-7.378,5.24-12.173c0-1.156-0.117-2.285-0.339-3.375   l8.256-1.546c1.628-0.305,2.702-1.872,2.396-3.501c-0.242-1.294-1.285-2.225-2.519-2.405c-0.051,0.016-0.101,0.035-0.154,0.045   l-24.587,4.604l-24.321-4.604c-0.051-0.01-0.098-0.029-0.147-0.043c-1.233,0.179-2.277,1.105-2.522,2.398   c-0.308,1.628,0.762,3.198,2.39,3.506l8.259,1.563c-0.22,1.085-0.337,2.208-0.337,3.359c0,4.795,2.019,9.111,5.24,12.173H27.902   L30.9,62.26h-6.833c-5.731,0-10.376,4.647-10.376,10.378v17.268h11.095c0.087-0.117,0.172-0.235,0.279-0.341l14.824-14.824   c-0.029-0.052-0.066-0.097-0.095-0.15c-1.442-2.667-1.76-5.736-0.894-8.643c0.866-2.907,2.812-5.302,5.479-6.745   c1.656-0.896,3.521-1.369,5.395-1.369c4.179,0,8.009,2.282,9.996,5.956c2.978,5.508,0.92,12.411-4.586,15.389   c-1.655,0.896-3.521,1.369-5.394,1.369c-2.039,0-3.991-0.551-5.689-1.534L33.208,89.906H86.2V72.638   C86.2,66.907,81.555,62.26,75.824,62.26z"></path></g></svg>