<svg height='100px' width='100px'  fill="#000000" xmlns="http://www.w3.org/2000/svg" data-name="Слой 3" viewBox="0 0 147.77778 133" x="0px" y="0px"><title>30</title><circle cx="14.77778" cy="14.77778" r="14.77778"></circle><circle cx="14.77778" cy="66.5" r="14.77778"></circle><circle cx="14.77778" cy="118.22222" r="14.77778"></circle><path d="M135.22222,105.66667H216.5a7.38889,7.38889,0,1,0,0-14.77778H135.22222a7.38889,7.38889,0,1,0,0,14.77778Z" transform="translate(-76.11111 -83.5)"></path><path d="M216.5,142.61111H135.22222a7.38889,7.38889,0,1,0,0,14.77778H216.5a7.38889,7.38889,0,0,0,0-14.77778Z" transform="translate(-76.11111 -83.5)"></path><path d="M216.5,194.33333H135.22222a7.38889,7.38889,0,1,0,0,14.77778H216.5a7.38889,7.38889,0,0,0,0-14.77778Z" transform="translate(-76.11111 -83.5)"></path></svg>