<svg height='100px' width='100px'  fill="#000000" xmlns:dc="http://purl.org/dc/elements/1.1/" xmlns:cc="http://creativecommons.org/ns#" xmlns:rdf="http://www.w3.org/1999/02/22-rdf-syntax-ns#" xmlns:svg="http://www.w3.org/2000/svg" xmlns="http://www.w3.org/2000/svg" xmlns:sodipodi="http://sodipodi.sourceforge.net/DTD/sodipodi-0.dtd" xmlns:inkscape="http://www.inkscape.org/namespaces/inkscape" version="1.1" x="0px" y="0px" viewBox="0 0 100 100"><g transform="translate(0,-952.36218)"><path style="text-indent:0;text-transform:none;direction:ltr;block-progression:tb;baseline-shift:baseline;color:#000000;enable-background:accumulate;" d="m 41.00025,956.36216 c 6.0396,0 11,4.9604 11,11 0,4.17739 -2.3819,7.85822 -5.8438,9.71875 l 4.4376,12.6875 c 1.099,-0.24075 2.2376,-0.40625 3.4062,-0.40625 4.3692,0 8.3553,1.79261 11.25,4.65625 l 11.1875,-10.5 c -0.9135,-1.50679 -1.4375,-3.28026 -1.4375,-5.15625 0,-5.48731 4.5127,-10 10,-10 5.4873,0 10,4.51269 10,10 0,5.48731 -4.5127,10 -10,10 -1.4316,0 -2.7952,-0.29229 -4.0312,-0.84375 l -12.2813,11.5 c 0.8541,1.95339 1.3125,4.08449 1.3125,6.34379 0,3.3159 -1.0368,6.407 -2.7812,8.9687 l 10,10 c 1.9803,-1.2235 4.2976,-1.9687 6.7812,-1.9687 7.1441,0 13,5.8558 13,13 0,7.1441 -5.8558,13 -13,13 -7.1442,0 -13,-5.8559 -13,-13 0,-2.5027 0.7278,-4.8224 1.9688,-6.8125 l -9.9688,-9.9688 c -2.5689,1.7598 -5.6683,2.7813 -9,2.7813 -5.1577,0 -9.7567,-2.463 -12.6875,-6.2813 l -12.375,4.125 c 0.037,0.3817 0.062,0.7654 0.062,1.1563 0,6.5919 -5.4081,12 -12,12 -6.5919,0 -12,-5.4081 -12,-12 0,-6.5919 5.4081,-12 12,-12 4.0792,0 7.7035,2.0778 9.875,5.2187 l 11.7188,-3.9062 c -0.3867,-1.3729 -0.5938,-2.8203 -0.5938,-4.3125 0,-1.3133 0.1667,-2.5579 0.4688,-3.7813 l -22.1563,-15.34374 c -1.2837,0.70924 -2.7551,1.125 -4.3125,1.125 -4.935,0 -9,-4.06497 -9,-9 0,-4.93503 4.065,-9 9,-9 4.935,0 9,4.06497 9,9 0,1.17414 -0.2391,2.31114 -0.6562,3.34375 l 20.7187,14.34375 c 1.0967,-1.51422 2.4221,-2.85295 3.9687,-3.90625 l -4.8124,-13.8125 c -5.6803,-0.40504 -10.2183,-5.19137 -10.2183,-10.96875 0,-6.0396 4.9604,-11 11,-11 z m 0,6 c -2.797,0 -5,2.203 -5,5 0,2.797 2.203,5 5,5 2.797,0 5,-2.203 5,-5 0,-2.797 -2.203,-5 -5,-5 z m 44,12 c -2.2447,0 -4,1.75531 -4,4 0,2.24469 1.7553,4 4,4 2.2447,0 4,-1.75531 4,-4 0,-2.24469 -1.7553,-4 -4,-4 z m -73,1 c -1.6924,0 -3,1.30763 -3,3 0,1.69237 1.3076,3 3,3 1.6924,0 3,-1.30763 3,-3 0,-1.69237 -1.3076,-3 -3,-3 z m 42,20 c -5.5584,0 -10,4.44165 -10,10.00004 0,5.5584 4.4416,10 10,10 5.5584,0 10,-4.4416 10,-10 0,-5.55839 -4.4416,-10.00004 -10,-10.00004 z m -37,19.00004 c -3.3493,0 -6,2.6507 -6,6 0,3.3493 2.6507,6 6,6 3.3493,0 6,-2.6507 6,-6 0,-3.3493 -2.6507,-6 -6,-6 z m 67,14 c -3.9015,0 -7,3.0984 -7,7 0,3.9014 3.0986,7 7,7 3.9014,0 7,-3.0986 7,-7 0,-3.9016 -3.0985,-7 -7,-7 z" fill="#000000" fill-opacity="1" stroke="none" marker="none" visibility="visible" display="inline" overflow="visible"></path></g></svg>