<svg height='100px' width='100px'  fill="#000000" xmlns="http://www.w3.org/2000/svg" viewBox="0 0 68 68" x="0px" y="0px"><path fill="#000000" d="M82.3800958,934.791477 C81.5058169,933.404028 81,931.761084 81,930 C81,928.238916 81.5058169,926.595972 82.3800958,925.208523 L69.7914771,912.619904 C68.404028,913.494183 66.7610839,914 65,914 C60.0294373,914 56,909.970563 56,905 C56,900.029437 60.0294373,896 65,896 C69.9705627,896 74,900.029437 74,905 C74,906.761084 73.4941831,908.404028 72.6199042,909.791477 L85.2085229,922.380096 C86.595972,921.505817 88.2389161,921 90,921 C91.7610839,921 93.404028,921.505817 94.7914771,922.380096 L107.380096,909.791477 C106.505817,908.404028 106,906.761084 106,905 C106,900.029437 110.029437,896 115,896 C119.970563,896 124,900.029437 124,905 C124,909.970563 119.970563,914 115,914 C113.238916,914 111.595972,913.494183 110.208523,912.619904 L97.6199042,925.208523 C98.4941831,926.595972 99,928.238916 99,930 C99,931.761084 98.4941831,933.404028 97.6199042,934.791477 L110.208523,947.380096 C111.595972,946.505817 113.238916,946 115,946 C119.970563,946 124,950.029437 124,955 C124,959.970563 119.970563,964 115,964 C110.029437,964 106,959.970563 106,955 C106,953.238916 106.505817,951.595972 107.380096,950.208523 L94.7914771,937.619904 C93.404028,938.494183 91.7610839,939 90,939 C88.2389161,939 86.595972,938.494183 85.2085229,937.619904 L72.6199042,950.208523 C73.4941831,951.595972 74,953.238916 74,955 C74,959.970563 69.9705627,964 65,964 C60.0294373,964 56,959.970563 56,955 C56,950.029437 60.0294373,946 65,946 C66.7610839,946 68.404028,946.505817 69.7914771,947.380096 L82.3800958,934.791477 Z M90,935 C92.7614237,935 95,932.761424 95,930 C95,927.238576 92.7614237,925 90,925 C87.2385763,925 85,927.238576 85,930 C85,932.761424 87.2385763,935 90,935 Z M65,960 C67.7614237,960 70,957.761424 70,955 C70,952.238576 67.7614237,950 65,950 C62.2385763,950 60,952.238576 60,955 C60,957.761424 62.2385763,960 65,960 Z M65,910 C67.7614237,910 70,907.761424 70,905 C70,902.238576 67.7614237,900 65,900 C62.2385763,900 60,902.238576 60,905 C60,907.761424 62.2385763,910 65,910 Z M115,910 C117.761424,910 120,907.761424 120,905 C120,902.238576 117.761424,900 115,900 C112.238576,900 110,902.238576 110,905 C110,907.761424 112.238576,910 115,910 Z M115,960 C117.761424,960 120,957.761424 120,955 C120,952.238576 117.761424,950 115,950 C112.238576,950 110,952.238576 110,955 C110,957.761424 112.238576,960 115,960 Z" transform="translate(-56 -896)"></path></svg>