<svg height='100px' width='100px'  fill="#000000" xmlns="http://www.w3.org/2000/svg" xmlns:xlink="http://www.w3.org/1999/xlink" version="1.1" x="0px" y="0px" viewBox="0 0 100 100" enable-background="new 0 0 100 100" xml:space="preserve"><path d="M78.206,63.823c-1.264,0-2.484,0.178-3.654,0.482L59.565,32.567c3.026-2.65,4.949-6.521,4.949-10.839  C64.514,13.761,58.002,7.28,50,7.28s-14.514,6.481-14.514,14.449c0,4.318,1.922,8.189,4.948,10.838L25.448,64.306  c-1.17-0.304-2.39-0.482-3.654-0.482c-8.003,0-14.514,6.481-14.514,14.449c0,7.967,6.511,14.448,14.514,14.448  c7.32,0,13.375-5.427,14.359-12.448h27.695c0.984,7.021,7.038,12.448,14.358,12.448c8.003,0,14.515-6.481,14.515-14.448  C92.72,70.305,86.209,63.823,78.206,63.823z M39.486,21.728c0-5.761,4.717-10.449,10.514-10.449c5.798,0,10.515,4.688,10.515,10.449  S55.797,32.177,50,32.177C44.203,32.177,39.486,27.49,39.486,21.728z M21.793,88.72c-5.797,0-10.514-4.687-10.514-10.448  s4.717-10.449,10.514-10.449c5.798,0,10.515,4.688,10.515,10.449S27.591,88.72,21.793,88.72z M36.152,76.272  c-0.623-4.445-3.277-8.242-7.004-10.435l14.665-31.059c1.88,0.887,3.972,1.398,6.186,1.398c2.214,0,4.306-0.511,6.186-1.398  l14.666,31.058c-3.727,2.193-6.381,5.99-7.004,10.435H36.152z M78.206,88.72c-5.797,0-10.514-4.687-10.514-10.448  s4.717-10.449,10.514-10.449c5.798,0,10.515,4.688,10.515,10.449S84.003,88.72,78.206,88.72z"></path></svg>