<?xml version="1.0" encoding="UTF-8" standalone="no"?>
<svg
   xmlns:dc="http://purl.org/dc/elements/1.1/"
   xmlns:cc="http://creativecommons.org/ns#"
   xmlns:rdf="http://www.w3.org/1999/02/22-rdf-syntax-ns#"
   xmlns:svg="http://www.w3.org/2000/svg"
   xmlns="http://www.w3.org/2000/svg"
   xmlns:sodipodi="http://sodipodi.sourceforge.net/DTD/sodipodi-0.dtd"
   xmlns:inkscape="http://www.inkscape.org/namespaces/inkscape"
   width="16px"
   height="16px"
   viewBox="0 0 16 16"
   version="1.1"
   id="svg22"
   sodipodi:docname="navigate-to-resource-selected.svg"
   inkscape:version="0.92.2 5c3e80d, 2017-08-06">
  <metadata
     id="metadata28">
    <rdf:RDF>
      <cc:Work
         rdf:about="">
        <dc:format>image/svg+xml</dc:format>
        <dc:type
           rdf:resource="http://purl.org/dc/dcmitype/StillImage" />
        <dc:title>2C5119F8-20B9-4A09-B7B4-2B9650C4F08A</dc:title>
      </cc:Work>
    </rdf:RDF>
  </metadata>
  <defs
     id="defs26" />
  <sodipodi:namedview
     pagecolor="#ffffff"
     bordercolor="#666666"
     borderopacity="1"
     objecttolerance="10"
     gridtolerance="10"
     guidetolerance="10"
     inkscape:pageopacity="0"
     inkscape:pageshadow="2"
     inkscape:window-width="1921"
     inkscape:window-height="1061"
     id="namedview24"
     showgrid="false"
     inkscape:zoom="26.5"
     inkscape:cx="7.725944"
     inkscape:cy="3.4484726"
     inkscape:window-x="0"
     inkscape:window-y="0"
     inkscape:window-maximized="0"
     inkscape:current-layer="svg22" />
  <!-- Generator: sketchtool 59.1 (101010) - https://sketch.com -->
  <title
     id="title2">2C5119F8-20B9-4A09-B7B4-2B9650C4F08A</title>
  <desc
     id="desc4">Created with sketchtool.</desc>
  <circle
     style="fill:none;fill-rule:evenodd;stroke:#007ffe;stroke-width:2;stroke-linecap:round;stroke-linejoin:round;stroke-opacity:1"
     id="Oval"
     cx="8"
     cy="8"
     r="7" />
  <g
     id="g20"
     transform="matrix(0,-0.28221204,0.28882098,0,3.394516,12.499888)"
     style="fill:#007ffe;fill-opacity:1;stroke:none;stroke-opacity:1">
    <path
       d="M 30.543,5.74 26.465,1.705 C 24.66,-0.072 21.729,-0.084 19.92,1.685 l -4.525,4.414 c -1.812,1.768 -1.82,4.648 -0.02,6.424 l 2.586,-2.484 C 17.699,9.248 18.022,8.342 18.662,7.715 l 2.879,-2.807 c 0.912,-0.885 2.375,-0.881 3.275,0.01 l 2.449,2.42 c 0.9,0.891 0.896,2.326 -0.01,3.213 l -2.879,2.809 c -0.609,0.594 -1.609,0.92 -2.385,0.711 l -2.533,2.486 c 1.803,1.781 4.732,1.789 6.545,0.02 l 4.52,-4.41 c 1.817,-1.771 1.823,-4.648 0.02,-6.427 z"
       id="path14"
       inkscape:connector-curvature="0"
       style="fill:#007ffe;fill-opacity:1;stroke:none;stroke-opacity:1" />
    <path
       d="m 13.975,21.894 c 0.215,0.773 -0.129,1.773 -0.752,2.381 l -2.689,2.627 C 9.612,27.802 8.12,27.797 7.202,26.89 L 4.704,24.429 C 3.788,23.523 3.794,22.05 4.716,21.154 l 2.691,-2.627 c 0.656,-0.637 1.598,-0.961 2.42,-0.689 l 2.594,-2.57 c -1.836,-1.811 -4.824,-1.82 -6.668,-0.02 l -4.363,4.26 c -1.846,1.803 -1.855,4.734 -0.02,6.549 l 4.154,4.107 c 1.834,1.809 4.82,1.818 6.668,0.018 l 4.363,-4.26 c 1.844,-1.805 1.852,-4.734 0.02,-6.547 z"
       id="path16"
       inkscape:connector-curvature="0"
       style="fill:#007ffe;fill-opacity:1;stroke:none;stroke-opacity:1" />
    <path
       d="m 11.139,20.722 c 0.611,0.617 1.611,0.623 2.234,0.008 l 7.455,-7.416 c 0.621,-0.617 0.625,-1.615 0.008,-2.234 -0.613,-0.615 -1.611,-0.619 -2.23,-0.006 l -7.457,7.414 c -0.62,0.615 -0.624,1.613 -0.01,2.234 z"
       id="path18"
       inkscape:connector-curvature="0"
       style="fill:#007ffe;fill-opacity:1;stroke:none;stroke-opacity:1" />
  </g>
</svg>
